<svg width="27" height="27" viewBox="0 0 27 27" fill="none" xmlns="http://www.w3.org/2000/svg">
<path d="M26.2485 24.0152L21.1136 18.8803C22.6698 16.843 23.5233 14.372 23.5237 11.7644C23.5237 8.62213 22.2998 5.66768 20.0775 3.44576C17.8556 1.22384 14.9015 0 11.7588 0C8.61653 0 5.66208 1.22384 3.44016 3.44576C-1.14672 8.03302 -1.14672 15.4966 3.44016 20.0831C5.66208 22.3054 8.61653 23.5293 11.7588 23.5293C14.3664 23.5289 16.8374 22.6754 18.8747 21.1192L24.0096 26.2541C24.3184 26.5634 24.7239 26.718 25.129 26.718C25.5341 26.718 25.9396 26.5634 26.2485 26.2541C26.867 25.636 26.867 24.6333 26.2485 24.0152ZM5.67909 17.8442C2.32687 14.492 2.32726 9.03729 5.67909 5.68469C7.30301 4.06116 9.46231 3.16667 11.7588 3.16667C14.0558 3.16667 16.2147 4.06116 17.8386 5.68469C19.4625 7.30861 20.357 9.46792 20.357 11.7644C20.357 14.0614 19.4625 16.2203 17.8386 17.8442C16.2147 19.4681 14.0558 20.3626 11.7588 20.3626C9.46231 20.3626 7.30301 19.4681 5.67909 17.8442Z" fill="#032E15"/>
</svg>
